<?xml version="1.0" encoding="utf-8"?>
<!-- Generator: Adobe Illustrator 16.0.0, SVG Export Plug-In . SVG Version: 6.00 Build 0)  -->
<!DOCTYPE svg PUBLIC "-//W3C//DTD SVG 1.1//EN" "http://www.w3.org/Graphics/SVG/1.1/DTD/svg11.dtd">
<svg version="1.1" id="Layer_1" xmlns="http://www.w3.org/2000/svg" xmlns:xlink="http://www.w3.org/1999/xlink" x="0px" y="0px"
	 width="36.843px" height="46.907px" viewBox="0 0 36.843 46.907" enable-background="new 0 0 36.843 46.907" xml:space="preserve">
<g>
	<g>
		<path fill="#00B0FF" d="M18.53,45.71h-0.958c-0.331,0-0.6,0.268-0.6,0.599s0.269,0.599,0.6,0.599h0.958
			c0.331,0,0.6-0.268,0.6-0.599S18.861,45.71,18.53,45.71z"/>
		<path fill="#00B0FF" d="M36.244,5.452h-2.128V3.325c0-0.331-0.268-0.599-0.598-0.599h-2.127V0.6c0-0.331-0.269-0.6-0.6-0.6H6.189
			C5.859,0,5.59,0.269,5.59,0.6c0,0.33,0.269,0.599,0.599,0.599h24.004v39.06H1.198V1.198h2.516c0.331,0,0.599-0.269,0.599-0.599
			c0-0.331-0.268-0.6-0.599-0.6H0.599C0.268,0,0,0.269,0,0.6v40.257c0,0.331,0.268,0.6,0.599,0.6h2.126v2.127
			c0,0.33,0.269,0.599,0.599,0.599h2.126v2.127c0,0.331,0.269,0.599,0.6,0.599h9.245c0.331,0,0.599-0.268,0.599-0.599
			s-0.268-0.599-0.599-0.599H6.65v-1.528h26.869c0.33,0,0.598-0.269,0.598-0.599V31.644c0-0.331-0.268-0.6-0.598-0.6
			c-0.332,0-0.6,0.269-0.6,0.6v11.34H3.924v-1.527h26.868c0.331,0,0.6-0.269,0.6-0.6V3.924h1.527v24.483c0,0.331,0.268,0.6,0.6,0.6
			c0.33,0,0.598-0.269,0.598-0.6V6.65h1.529v39.06H20.567c-0.33,0-0.6,0.268-0.6,0.599s0.27,0.599,0.6,0.599h15.677
			c0.331,0,0.599-0.268,0.599-0.599V6.051C36.843,5.72,36.575,5.452,36.244,5.452z"/>
		<path fill="#00B0FF" d="M5.511,34.474H25.88c0.33,0,0.6-0.269,0.6-0.6c0-0.33-0.27-0.599-0.6-0.599H5.511
			c-0.33,0-0.599,0.269-0.599,0.599C4.912,34.205,5.181,34.474,5.511,34.474z"/>
		<path fill="#00B0FF" d="M5.511,25.71H25.88c0.33,0,0.6-0.268,0.6-0.599s-0.27-0.6-0.6-0.6H5.511c-0.33,0-0.599,0.269-0.599,0.6
			S5.181,25.71,5.511,25.71z"/>
		<path fill="#00B0FF" d="M5.511,30.113h2.396c0.331,0,0.6-0.269,0.6-0.6c0-0.33-0.269-0.599-0.6-0.599H5.511
			c-0.33,0-0.599,0.269-0.599,0.599C4.912,29.845,5.181,30.113,5.511,30.113z"/>
		<path fill="#00B0FF" d="M9.98,28.915c-0.331,0-0.599,0.269-0.599,0.599c0,0.331,0.269,0.6,0.599,0.6h1.277
			c0.331,0,0.599-0.269,0.599-0.6c0-0.33-0.268-0.599-0.599-0.599H9.98z"/>
		<path fill="#00B0FF" d="M25.88,28.915H13.298c-0.33,0-0.599,0.269-0.599,0.599c0,0.331,0.269,0.6,0.599,0.6H25.88
			c0.33,0,0.6-0.269,0.6-0.6C26.479,29.184,26.21,28.915,25.88,28.915z"/>
		<path fill="#00B0FF" d="M5.537,20.13c-0.331,0-0.6,0.269-0.6,0.6s0.269,0.599,0.6,0.599h10.957c0.331,0,0.599-0.268,0.599-0.599
			s-0.268-0.6-0.599-0.6H5.537z"/>
		<path fill="#00B0FF" d="M25.88,20.13h-7.349c-0.331,0-0.599,0.269-0.599,0.6s0.268,0.599,0.599,0.599h7.349
			c0.33,0,0.6-0.268,0.6-0.599S26.21,20.13,25.88,20.13z"/>
		<path fill="#00B0FF" d="M5.511,16.946H25.88c0.33,0,0.6-0.268,0.6-0.599c0-0.331-0.27-0.599-0.6-0.599H5.511
			c-0.33,0-0.599,0.268-0.599,0.599C4.912,16.678,5.181,16.946,5.511,16.946z"/>
		<path fill="#00B0FF" d="M25.88,11.354h-3.754c-0.33,0-0.599,0.269-0.599,0.6c0,0.331,0.269,0.599,0.599,0.599h3.754
			c0.33,0,0.6-0.268,0.6-0.599C26.479,11.622,26.21,11.354,25.88,11.354z"/>
		<path fill="#00B0FF" d="M5.518,12.552h14.3c0.331,0,0.599-0.268,0.599-0.599c0-0.331-0.268-0.6-0.599-0.6h-14.3
			c-0.33,0-0.599,0.269-0.599,0.6C4.919,12.284,5.188,12.552,5.518,12.552z"/>
		<path fill="#00B0FF" d="M25.88,6.982h-8.228c-0.331,0-0.599,0.269-0.599,0.6c0,0.33,0.268,0.599,0.599,0.599h8.228
			c0.33,0,0.6-0.269,0.6-0.599C26.479,7.251,26.21,6.982,25.88,6.982z"/>
	</g>
</g>
</svg>
